<?xml version="1.0" standalone="no"?>
<!DOCTYPE svg PUBLIC "-//W3C//DTD SVG 20010904//EN"
 "http://www.w3.org/TR/2001/REC-SVG-20010904/DTD/svg10.dtd">
<svg version="1.0" xmlns="http://www.w3.org/2000/svg"
 width="201.000000pt" height="201.000000pt" viewBox="0 0 201.000000 201.000000"
 preserveAspectRatio="xMidYMid meet">
<metadata>
Created by potrace 1.11, written by Peter Selinger 2001-2013
</metadata>
<g transform="translate(0.000000,201.000000) scale(0.100000,-0.100000)"
fill="#000000" stroke="none">
<path d="M811 1856 c-5 -6 -12 -21 -15 -33 -8 -26 23 -63 53 -63 29 0 32 -22
14 -110 -15 -77 -17 -80 -41 -75 -14 2 -34 -2 -45 -10 -13 -9 -27 -11 -42 -5
-13 5 -25 7 -26 6 -2 -2 -43 -6 -90 -9 -92 -7 -170 -28 -200 -56 -18 -17 -31
-63 -55 -196 -3 -16 -14 -52 -25 -80 -17 -45 -26 -55 -81 -86 -35 -20 -98 -52
-142 -73 -43 -20 -75 -40 -72 -43 4 -4 12 -1 18 5 23 23 28 12 28 -57 0 -57 4
-72 23 -93 15 -17 31 -24 48 -21 23 3 23 2 -6 -17 -16 -11 -25 -20 -18 -20 6
0 14 4 17 9 3 5 14 11 24 13 14 4 18 0 16 -22 -1 -23 2 -27 17 -23 12 3 19 0
20 -8 1 -8 3 -35 4 -60 l3 -46 -71 -47 c-39 -25 -67 -46 -62 -46 6 0 34 16 62
35 29 19 56 35 61 35 5 0 9 -82 9 -181 1 -100 5 -185 11 -191 11 -11 57 -18
142 -19 80 -2 121 6 170 31 79 40 112 109 112 235 0 141 -63 218 -197 240
l-40 7 35 15 c19 9 46 17 60 19 14 1 59 12 100 22 l75 20 5 -26 c3 -14 5 -146
4 -294 l-1 -268 24 -1 c30 -1 87 -1 113 0 18 1 20 10 22 122 l3 122 35 3 c124
12 166 32 206 100 19 32 27 63 31 119 6 75 11 83 46 69 11 -4 13 -15 10 -37
-8 -44 -8 -195 -1 -232 34 -177 111 -267 233 -272 97 -4 203 77 226 174 9 38
21 140 23 198 1 24 5 29 21 27 11 -2 23 -9 27 -15 6 -9 8 -9 8 -1 0 6 -9 18
-20 25 l-21 14 23 45 c13 26 30 45 39 44 8 -1 15 6 15 15 -1 9 4 18 9 20 6 3
19 13 29 23 11 10 24 18 28 18 5 0 18 9 29 19 17 16 20 30 18 82 -2 62 -1 64
21 61 38 -4 20 5 -75 38 -50 17 -103 37 -120 45 -16 7 -41 16 -55 20 -38 12
-88 47 -101 72 -10 19 -9 26 5 42 10 10 24 43 32 72 9 30 19 68 24 84 29 96
60 220 60 235 0 14 -25 24 -125 49 -118 31 -161 36 -157 18 1 -4 -4 -23 -12
-42 -8 -19 -13 -35 -10 -35 2 0 -2 -16 -10 -35 -16 -38 -16 -37 -16 -61 0 -8
-4 -13 -9 -9 -5 3 -7 18 -5 33 10 52 11 117 2 149 -13 48 -66 77 -131 70 -45
-4 -56 -10 -87 -45 -31 -35 -62 -107 -75 -173 -2 -10 -20 -34 -39 -53 -20 -18
-36 -38 -36 -45 0 -6 -8 -3 -19 8 -10 10 -24 20 -31 23 -9 3 -6 20 9 68 11 36
22 76 25 90 2 14 10 40 17 59 11 31 14 33 49 27 42 -6 53 2 64 47 8 34 1 37
-151 76 -81 20 -115 25 -122 17z m59 -32 c0 -2 -7 -4 -15 -4 -8 0 -15 4 -15
10 0 5 7 7 15 4 8 -4 15 -8 15 -10z m349 -109 c-3 -2 -23 -11 -45 -20 l-39
-16 24 21 c19 16 75 31 60 15z m41 -55 c6 -11 8 -20 6 -20 -3 0 -10 9 -16 20
-6 11 -8 20 -6 20 3 0 10 -9 16 -20z m-19 -38 c3 -26 -1 -105 -4 -108 -2 -2
-24 -5 -50 -7 -53 -5 -55 -1 -35 67 16 57 45 88 69 75 11 -5 20 -17 20 -27z
m181 16 c-7 -7 -12 -8 -12 -2 0 6 3 14 7 17 3 4 9 5 12 2 2 -3 -1 -11 -7 -17z
m140 -46 c4 -4 -6 -60 -24 -125 -17 -65 -33 -115 -36 -112 -3 3 -14 29 -25 57
-25 64 -26 110 -4 162 16 36 19 38 49 32 18 -3 36 -10 40 -14z m-741 -110 c-4
-9 -11 -24 -14 -32 -3 -8 -5 -3 -4 13 1 15 5 27 10 27 4 0 5 5 1 12 -4 7 -3 8
4 4 8 -5 9 -13 3 -24z m732 -207 c-5 -13 -23 -22 -23 -11 0 15 14 35 21 31 4
-3 6 -12 2 -20z m-603 -389 c31 -14 52 -58 57 -120 5 -55 3 -65 -19 -91 -21
-24 -33 -29 -74 -29 l-49 -1 1 113 c1 68 6 118 13 126 12 14 42 15 71 2z m519
-122 c46 -18 52 -35 52 -140 0 -69 -12 -135 -28 -161 -11 -16 -66 -23 -84 -9
-22 16 -41 55 -47 96 -8 54 -4 192 7 228 3 8 67 -1 100 -14z m-980 -124 c11
-6 26 -20 32 -32 16 -30 12 -113 -7 -154 -29 -61 -107 -80 -119 -30 -10 40
-12 211 -3 222 10 14 68 10 97 -6z m901 -234 c0 -15 -49 20 -59 41 -17 37 -14
37 24 -1 19 -20 35 -38 35 -40z m185 14 c-15 -29 -67 -65 -78 -53 -4 3 12 19
33 34 22 16 40 34 40 39 0 6 5 10 10 10 6 0 4 -13 -5 -30z m-1080 -80 c-17
-19 -65 -28 -65 -12 0 8 73 41 79 35 2 -1 -4 -12 -14 -23z"/>
<path d="M1750 642 c0 -8 61 -34 67 -28 4 3 -54 36 -64 36 -1 0 -3 -4 -3 -8z"/>
</g>
</svg>
